<?xml version="1.0"?>
<svg width="320" height="180" xmlns="http://www.w3.org/2000/svg" xmlns:svg="http://www.w3.org/2000/svg" version="1.1" xml:space="preserve">
 <g class="layer">
  <title>Layer 1</title>
  <g id="SVGRepo_bgCarrier" stroke-width="0"/>
  <g id="SVGRepo_tracerCarrier" stroke-linecap="round" stroke-linejoin="round"/>
  <g id="SVGRepo_iconCarrier" transform="translate(0 1) translate(0 1) translate(0 1) translate(0 1) translate(0 1) translate(0 1) translate(0 1) translate(0 1) translate(34 57) matrix(2.75 0 0 2.75 -3.5 -10.5)">
   <title>I</title>
   <style type="text/css">.st0{fill:none;stroke:#d00101;stroke-width:2;stroke-linecap:round;stroke-linejoin:round;stroke-miterlimit:10;}</style>
   <path class="st0" d="m30,24l0,0c-9.3,-1.3 -18.7,-1.3 -28,0l0,0l0,-18l0,0c9.3,1.3 18.7,1.3 28,0l0,0l0,18z" id="svg_1"/>
   <path class="st0" d="m24.7,28c-0.9,-2.9 -4.5,-5 -8.7,-5c-4.3,0 -7.8,2.1 -8.7,5" id="svg_2"/>
   <path class="st0" d="m13,12l0,6c0,0.7 0.9,1.2 1.5,0.8l5,-3c0.6,-0.4 0.6,-1.2 0,-1.6l-5,-3c-0.6,-0.5 -1.5,0 -1.5,0.8z" id="svg_3"/>
  </g>
 </g>
</svg>